HIERARCHY
ROOT Hips
{
	OFFSET 0.000000 97.167313 0.000000
	CHANNELS 6 Xposition Yposition Zposition Xrotation Yrotation Zrotation
	JOINT Spine
	{
		OFFSET 0.000000 13.784798 0.064400
		CHANNELS 3 Xrotation Yrotation Zrotation
		JOINT Spine1
		{
			OFFSET 0.000000 12.037903 0.404700
			CHANNELS 3 Xrotation Yrotation Zrotation
			JOINT Spine2
			{
				OFFSET 0.000000 17.795601 0.420200
				CHANNELS 3 Xrotation Yrotation Zrotation
				JOINT Neck
				{
					OFFSET 0.000000 39.131302 11.954600
					CHANNELS 3 Xrotation Yrotation Zrotation
					JOINT Head
					{
						OFFSET 0.000000 14.456192 15.627699
						CHANNELS 3 Xrotation Yrotation Zrotation
						JOINT HeadTop_End
						{
							OFFSET 0.000000 15.703506 7.603401
							CHANNELS 3 Xrotation Yrotation Zrotation
							End Site
							{
								OFFSET 0.000000 17.447403 0.000000
							}
						}
					}
				}
				JOINT LeftShoulder
				{
					OFFSET 17.399500 24.608795 1.168800
					CHANNELS 3 Xrotation Yrotation Zrotation
					JOINT LeftArm
					{
						OFFSET 18.980635 5.765305 1.818600
						CHANNELS 3 Xrotation Yrotation Zrotation
						JOINT LeftForeArm
						{
							OFFSET 49.290169 0.000000 0.000000
							CHANNELS 3 Xrotation Yrotation Zrotation
							JOINT LeftHand
							{
								OFFSET 31.562012 0.000000 0.000000
								CHANNELS 3 Xrotation Yrotation Zrotation
								JOINT LeftHandThumb1
								{
									OFFSET 6.133995 -4.388519 7.076070
									CHANNELS 3 Xrotation Yrotation Zrotation
									JOINT LeftHandThumb2
									{
										OFFSET 6.037666 -3.485840 3.485847
										CHANNELS 3 Xrotation Yrotation Zrotation
										JOINT LeftHandThumb3
										{
											OFFSET 6.496506 -3.750763 3.750761
											CHANNELS 3 Xrotation Yrotation Zrotation
											JOINT LeftHandThumb4
											{
												OFFSET 5.616882 -3.242905 3.242910
												CHANNELS 3 Xrotation Yrotation Zrotation
												End Site
												{
													OFFSET -1.254608 7.132141 0.375429
												}
											}
										}
									}
								}
								JOINT LeftHandPinky1
								{
									OFFSET 18.920792 -0.453171 -11.426712
									CHANNELS 3 Xrotation Yrotation Zrotation
									JOINT LeftHandPinky2
									{
										OFFSET 4.919586 0.000000 0.000000
										CHANNELS 3 Xrotation Yrotation Zrotation
										JOINT LeftHandPinky3
										{
											OFFSET 5.233047 0.000000 0.000000
											CHANNELS 3 Xrotation Yrotation Zrotation
											JOINT LeftHandPinky4
											{
												OFFSET 5.571716 0.000000 0.000000
												CHANNELS 3 Xrotation Yrotation Zrotation
												End Site
												{
													OFFSET -3.459808 4.342407 -0.466164
												}
											}
										}
									}
								}
								JOINT LeftHandRing1
								{
									OFFSET 22.726120 -0.094986 -6.500475
									CHANNELS 3 Xrotation Yrotation Zrotation
									JOINT LeftHandRing2
									{
										OFFSET 6.408615 0.000000 0.000000
										CHANNELS 3 Xrotation Yrotation Zrotation
										JOINT LeftHandRing3
										{
											OFFSET 6.150223 0.000000 0.000000
											CHANNELS 3 Xrotation Yrotation Zrotation
											JOINT LeftHandRing4
											{
												OFFSET 6.145386 0.000000 0.000000
												CHANNELS 3 Xrotation Yrotation Zrotation
												End Site
												{
													OFFSET -3.671402 4.923981 -0.202372
												}
											}
										}
									}
								}
								JOINT LeftHandMiddle1
								{
									OFFSET 23.373947 0.000000 0.000001
									CHANNELS 3 Xrotation Yrotation Zrotation
									JOINT LeftHandMiddle2
									{
										OFFSET 6.996567 0.000000 0.000000
										CHANNELS 3 Xrotation Yrotation Zrotation
										JOINT LeftHandMiddle3
										{
											OFFSET 7.015945 0.000000 0.000000
											CHANNELS 3 Xrotation Yrotation Zrotation
											JOINT LeftHandMiddle4
											{
												OFFSET 7.721573 0.000000 0.000000
												CHANNELS 3 Xrotation Yrotation Zrotation
												End Site
												{
													OFFSET -4.651108 6.158463 0.251582
												}
											}
										}
									}
								}
								JOINT LeftHandIndex1
								{
									OFFSET 21.310577 -0.490082 6.209344
									CHANNELS 3 Xrotation Yrotation Zrotation
									JOINT LeftHandIndex2
									{
										OFFSET 7.536453 0.000000 0.000000
										CHANNELS 3 Xrotation Yrotation Zrotation
										JOINT LeftHandIndex3
										{
											OFFSET 7.512344 0.000000 0.000000
											CHANNELS 3 Xrotation Yrotation Zrotation
											JOINT LeftHandIndex4
											{
												OFFSET 10.212402 0.000000 0.000001
												CHANNELS 3 Xrotation Yrotation Zrotation
												End Site
												{
													OFFSET -5.180801 8.690506 1.388433
												}
											}
										}
									}
								}
							}
						}
					}
				}
				JOINT RightShoulder
				{
					OFFSET -17.399500 24.608795 1.168800
					CHANNELS 3 Xrotation Yrotation Zrotation
					JOINT RightArm
					{
						OFFSET -18.980635 5.765305 1.818600
						CHANNELS 3 Xrotation Yrotation Zrotation
						JOINT RightForeArm
						{
							OFFSET -49.290169 0.000000 0.000000
							CHANNELS 3 Xrotation Yrotation Zrotation
							JOINT RightHand
							{
								OFFSET -31.562012 0.000000 0.000000
								CHANNELS 3 Xrotation Yrotation Zrotation
								JOINT RightHandThumb1
								{
									OFFSET -6.133995 -4.388519 7.076070
									CHANNELS 3 Xrotation Yrotation Zrotation
									JOINT RightHandThumb2
									{
										OFFSET -6.037666 -3.485840 3.485847
										CHANNELS 3 Xrotation Yrotation Zrotation
										JOINT RightHandThumb3
										{
											OFFSET -6.496506 -3.750763 3.750761
											CHANNELS 3 Xrotation Yrotation Zrotation
											JOINT RightHandThumb4
											{
												OFFSET -5.616882 -3.242905 3.242910
												CHANNELS 3 Xrotation Yrotation Zrotation
												End Site
												{
													OFFSET 1.254608 7.132141 0.375429
												}
											}
										}
									}
								}
								JOINT RightHandIndex1
								{
									OFFSET -21.310577 -0.490082 6.209344
									CHANNELS 3 Xrotation Yrotation Zrotation
									JOINT RightHandIndex2
									{
										OFFSET -7.536453 0.000000 0.000000
										CHANNELS 3 Xrotation Yrotation Zrotation
										JOINT RightHandIndex3
										{
											OFFSET -7.512344 0.000000 0.000000
											CHANNELS 3 Xrotation Yrotation Zrotation
											JOINT RightHandIndex4
											{
												OFFSET -10.212402 0.000000 0.000001
												CHANNELS 3 Xrotation Yrotation Zrotation
												End Site
												{
													OFFSET 5.180801 8.690506 1.388433
												}
											}
										}
									}
								}
								JOINT RightHandMiddle1
								{
									OFFSET -23.373947 0.000000 0.000001
									CHANNELS 3 Xrotation Yrotation Zrotation
									JOINT RightHandMiddle2
									{
										OFFSET -6.996567 0.000000 0.000000
										CHANNELS 3 Xrotation Yrotation Zrotation
										JOINT RightHandMiddle3
										{
											OFFSET -7.015945 0.000000 0.000000
											CHANNELS 3 Xrotation Yrotation Zrotation
											JOINT RightHandMiddle4
											{
												OFFSET -7.721573 0.000000 0.000000
												CHANNELS 3 Xrotation Yrotation Zrotation
												End Site
												{
													OFFSET 4.651108 6.158463 0.251582
												}
											}
										}
									}
								}
								JOINT RightHandRing1
								{
									OFFSET -22.726120 -0.094986 -6.500475
									CHANNELS 3 Xrotation Yrotation Zrotation
									JOINT RightHandRing2
									{
										OFFSET -6.408615 0.000000 0.000000
										CHANNELS 3 Xrotation Yrotation Zrotation
										JOINT RightHandRing3
										{
											OFFSET -6.150223 0.000000 0.000000
											CHANNELS 3 Xrotation Yrotation Zrotation
											JOINT RightHandRing4
											{
												OFFSET -6.145386 0.000000 0.000000
												CHANNELS 3 Xrotation Yrotation Zrotation
												End Site
												{
													OFFSET 3.671402 4.923981 -0.202372
												}
											}
										}
									}
								}
								JOINT RightHandPinky1
								{
									OFFSET -18.920792 -0.453171 -11.426712
									CHANNELS 3 Xrotation Yrotation Zrotation
									JOINT RightHandPinky2
									{
										OFFSET -4.919586 0.000000 0.000000
										CHANNELS 3 Xrotation Yrotation Zrotation
										JOINT RightHandPinky3
										{
											OFFSET -5.233047 0.000000 0.000000
											CHANNELS 3 Xrotation Yrotation Zrotation
											JOINT RightHandPinky4
											{
												OFFSET -5.571716 0.000000 0.000000
												CHANNELS 3 Xrotation Yrotation Zrotation
												End Site
												{
													OFFSET 3.459808 4.342407 -0.466164
												}
											}
										}
									}
								}
							}
						}
					}
				}
			}
		}
	}
	JOINT LeftUpLeg
	{
		OFFSET 19.899099 -7.885101 -3.429500
		CHANNELS 3 Xrotation Yrotation Zrotation
		JOINT LeftLeg
		{
			OFFSET 1.745560 -36.997807 10.304700
			CHANNELS 3 Xrotation Yrotation Zrotation
			JOINT LeftFoot
			{
				OFFSET -1.745558 -29.803308 -13.615400
				CHANNELS 3 Xrotation Yrotation Zrotation
				JOINT LeftToeBase
				{
					OFFSET 1.181900 -18.539904 15.226099
					CHANNELS 3 Xrotation Yrotation Zrotation
					JOINT LeftToe_End
					{
						OFFSET -0.863701 1.402801 16.534700
						CHANNELS 3 Xrotation Yrotation Zrotation
						End Site
						{
							OFFSET 0.000000 16.616566 0.000000
						}
					}
				}
			}
		}
	}
	JOINT RightUpLeg
	{
		OFFSET -19.899099 -7.885101 -3.429500
		CHANNELS 3 Xrotation Yrotation Zrotation
		JOINT RightLeg
		{
			OFFSET -1.745560 -36.997807 10.304700
			CHANNELS 3 Xrotation Yrotation Zrotation
			JOINT RightFoot
			{
				OFFSET 1.745558 -29.803308 -13.615400
				CHANNELS 3 Xrotation Yrotation Zrotation
				JOINT RightToeBase
				{
					OFFSET -1.181900 -18.539904 15.226099
					CHANNELS 3 Xrotation Yrotation Zrotation
					JOINT RightToe_End
					{
						OFFSET 0.863701 1.402801 16.534700
						CHANNELS 3 Xrotation Yrotation Zrotation
						End Site
						{
							OFFSET 0.000000 16.616566 0.000000
						}
					}
				}
			}
		}
	}
}
MOTION
Frames: 4
Frame Time: 0.033333
145.837784 61.192722 81.268105 98.906187 -16.914446 -252.612142 5.494003 4.161511 -1.175493 10.945476 8.027922 -1.996405 10.922120 8.058714 -2.002692 7.263301 0.285887 9.176340 -3.739132 15.258187 -9.914348 -0.000000 -0.000002 0.000000 0.155664 8.113838 -5.432876 -70.898682 26.295798 10.428895 0.000070 -63.787383 0.000062 -34.586968 8.871379 -30.352104 -5.344650 -33.430822 -4.091621 11.386333 54.301148 5.773075 -9.675254 -11.896227 11.851717 -0.000002 -0.000001 -0.000003 0.045519 6.909322 -72.250506 3.774362 5.471327 -69.177980 3.773241 5.470912 -69.166143 -0.000002 0.000000 -0.000002 2.206539 6.944301 -58.387114 2.646798 4.898220 -56.749259 2.881280 5.043615 -59.454577 -0.000002 -0.000003 0.000003 4.226763 8.998272 -44.088034 1.796673 4.222152 -46.087388 1.998335 4.406909 -48.767752 0.000003 -0.000003 0.000004 4.199874 11.692084 -18.964053 0.380841 2.079596 -20.753043 0.380604 2.078983 -20.746800 -0.000003 -0.000000 -0.000001 5.182797 23.836865 4.442323 -68.286715 30.080218 38.030510 0.000062 56.284830 -0.000056 11.712788 16.004462 -14.422434 -3.163191 9.718498 -1.922183 8.424851 -30.885200 -1.544936 -7.776300 9.650570 -9.479826 -0.000003 -0.000001 0.000001 -1.666552 5.642600 11.938621 0.312835 -1.679690 21.098857 0.354882 -1.784786 22.489554 -0.000003 -0.000003 0.000003 -1.382970 1.419340 18.092582 0.517039 -2.134576 27.228786 0.563659 -2.222803 28.455381 0.000001 0.000003 -0.000004 -0.415836 -2.375874 25.679812 0.667686 -2.404703 31.031476 0.647064 -2.370118 30.536526 -0.000005 -0.000001 -0.000003 -1.059501 -1.922804 32.764086 0.881314 -2.728176 35.799777 1.253127 -3.180184 43.004500 -0.000001 -0.000001 -0.000001 -117.613631 -6.018292 45.917384 39.337559 -1.001996 -0.869871 11.232832 -8.054762 -30.280506 2.358123 0.000038 -0.000447 0.000000 0.000000 0.000000 -72.345084 -2.195582 -31.699038 48.218967 4.156660 10.888308 -30.557645 -27.462350 26.472681 0.800773 -0.093198 1.509948 0.000000 0.000002 -0.000000 
147.356293 62.916340 80.586380 97.839332 -20.997567 -255.955356 5.107893 4.093521 -1.490720 10.330677 8.046899 -2.401387 10.310798 8.066903 -2.427915 7.829283 -0.317430 12.274762 -3.485534 15.860758 -11.408932 0.000000 -0.000003 -0.000000 0.198811 7.576730 -5.663562 -61.171919 33.128822 2.256673 0.000040 -52.637317 0.000029 -42.735343 6.382536 -29.437384 -3.340669 -35.329748 -3.930066 11.713007 56.388000 5.876611 -9.811905 -12.466807 11.771772 -0.000000 0.000001 -0.000001 -0.824110 6.960764 -75.677355 4.109813 5.586825 -72.658261 4.108598 5.586460 -72.645831 0.000001 0.000000 -0.000006 2.020621 6.890973 -61.117619 2.893807 5.050953 -59.597123 3.147970 5.191172 -62.443953 -0.000000 0.000001 0.000002 4.795066 9.361117 -46.203645 1.970186 4.382146 -48.400073 2.190021 4.567260 -51.217304 0.000000 0.000000 -0.000003 4.848180 13.057781 -19.885015 0.419450 2.178707 -21.792291 0.419201 2.178068 -21.785766 -0.000002 0.000000 -0.000001 5.001815 24.341042 7.529013 -69.573489 34.021469 37.213654 0.000043 60.941147 -0.000029 9.127312 18.524433 -10.443873 -0.902007 10.495448 -1.433451 8.558962 -31.913926 -1.420575 -7.938441 10.575397 -9.069696 -0.000002 -0.000001 0.000001 -1.538128 5.084135 11.814921 0.418060 -1.930290 24.438772 0.490777 -2.082775 26.514863 -0.000001 0.000002 0.000001 -1.427234 1.612429 17.925275 0.692789 -2.445890 31.624517 0.722103 -2.492853 32.305255 0.000000 0.000001 -0.000009 -0.629050 -1.911246 25.502501 0.892992 -2.744255 36.044042 0.789731 -2.596609 33.828346 -0.000001 0.000000 -0.000002 -1.815784 -0.718273 32.649411 1.089116 -2.994954 39.960237 1.822431 -3.696578 52.475261 0.000001 -0.000002 0.000005 -118.269766 -2.018315 43.001543 38.238230 3.082796 0.913230 15.858635 -7.638475 -25.103124 4.422531 -0.000013 -0.000018 -0.000000 0.000002 -0.000000 -67.870811 -4.120402 -29.861187 48.086861 3.928474 11.438336 -32.219765 -29.504757 23.707197 0.808613 -0.093890 1.524715 -0.000000 0.000002 -0.000000 
148.017212 64.301361 80.407852 95.696667 -24.729624 -259.707343 4.697970 4.096993 -1.720560 9.600017 8.116862 -2.529545 9.584246 8.126456 -2.570396 8.061544 -0.807116 13.988498 -2.919587 15.149421 -11.500438 -0.000000 -0.000001 -0.000000 0.492012 4.788589 -8.208754 -51.113618 33.657915 -5.946682 0.000021 -40.125469 0.000022 -47.013155 3.419974 -25.039709 -1.491002 -37.029188 -3.677339 12.010627 58.193232 5.948495 -9.931831 -12.960049 11.701174 -0.000001 0.000001 -0.000002 -1.623739 7.094943 -78.632553 4.405254 5.670205 -75.669999 4.403977 5.669913 -75.657070 -0.000000 0.000000 -0.000002 1.834436 6.860253 -63.476356 3.113447 5.173057 -62.061626 3.384714 5.307474 -65.031119 -0.000000 -0.000000 0.000005 5.314589 9.655345 -48.040416 2.125429 4.514790 -50.401458 2.361275 4.699326 -53.337241 0.000001 0.000000 0.000001 5.462708 14.261012 -20.704378 0.454300 2.263851 -22.691471 0.454041 2.263199 -22.684646 -0.000002 0.000003 -0.000001 4.407907 23.837393 9.603743 -68.937133 40.017085 37.068881 0.000068 65.536758 -0.000051 9.910337 19.688369 -13.057387 1.146826 11.265635 -1.005942 8.681941 -32.853541 -1.304777 -8.090307 11.419621 -8.692586 -0.000002 -0.000001 0.000001 -1.437382 4.557762 11.829230 0.528327 -2.156332 27.529820 0.632941 -2.346020 30.193340 0.000001 -0.000003 -0.000001 -1.478335 1.770182 17.940291 0.874794 -2.719149 35.662863 0.882419 -2.729689 35.822532 0.000001 -0.000001 -0.000006 -0.823006 -1.505218 25.533385 1.125342 -3.037590 40.648307 0.931242 -2.796011 36.835647 -0.000001 0.000001 -0.000005 -2.508164 0.360191 32.751642 1.295623 -3.225094 43.765042 2.409947 -4.080154 61.122461 0.000000 0.000001 0.000007 -118.493100 2.312753 39.146314 36.935231 4.867369 2.737311 18.379286 -6.417563 -20.358084 6.048705 -0.000023 -0.000000 0.000000 0.000001 -0.000000 -62.618833 -5.985259 -28.949391 47.056202 3.983724 12.171441 -33.925328 -32.233288 21.564212 0.808118 -0.093865 1.523680 -0.000000 0.000000 -0.000000 
148.232910 65.501724 80.503403 93.036862 -28.283701 -263.635630 4.395638 4.118649 -1.961411 9.044012 8.228443 -2.631715 9.033105 8.228794 -2.681265 7.846970 -1.130768 14.449711 -2.408537 13.646065 -10.471529 0.000000 0.000001 -0.000000 0.649002 2.670586 -10.834012 -43.482381 31.954101 -13.122207 0.000006 -30.398187 -0.000006 -47.049987 0.297407 -17.647928 0.204465 -38.522643 -3.361550 12.277283 59.729096 5.994016 -10.035135 -13.379509 11.640052 -0.000001 -0.000000 0.000003 -2.347022 7.277234 -81.137982 4.659857 5.728938 -78.233076 4.658510 5.728641 -78.219709 0.000003 -0.000001 0.000001 1.652664 6.844720 -65.480006 3.304328 5.269471 -64.158952 3.590142 5.397983 -67.233015 -0.000000 -0.000000 0.000007 5.779478 9.892390 -49.608439 2.261121 4.623358 -52.104744 2.510802 4.806636 -55.141555 0.000002 0.000000 0.000008 6.032332 15.312132 -21.421555 0.485011 2.335879 -23.456572 0.484722 2.335196 -23.449537 -0.000003 0.000003 -0.000003 4.150720 27.997792 9.763054 -65.247738 41.722672 30.231459 0.000131 71.238675 -0.000128 11.410120 21.639670 -16.676720 2.977327 12.007399 -0.638851 8.793127 -33.699129 -1.198718 -8.230135 12.178991 -8.351079 -0.000001 -0.000002 -0.000000 -1.344785 4.085753 11.830502 0.638453 -2.355437 30.327119 0.774964 -2.574475 33.501070 -0.000000 -0.000001 -0.000001 -1.524327 1.912085 17.953929 1.054778 -2.953545 39.298405 1.038882 -2.934044 38.988902 -0.000001 0.000003 -0.000001 -0.997641 -1.139925 25.562340 1.354033 -3.284877 44.793682 1.067392 -2.968892 39.542783 -0.000000 0.000001 -0.000005 -3.133027 1.329594 32.854835 1.494181 -3.420052 47.190361 2.978996 -4.344927 68.857446 0.000000 0.000000 0.000001 -117.425910 6.353006 35.665434 34.627311 6.298027 4.133878 20.232040 -7.858441 -16.358515 6.654631 -0.000033 0.000340 0.000000 0.000001 -0.000000 -56.904007 -7.943677 -28.230075 45.350943 4.394690 12.918519 -35.631922 -35.295221 19.560996 0.786199 -0.093895 1.482119 -0.000000 0.000002 -0.000000 
